# xmcd CD database file
#
# Track frame offsets:
#	150
#	12971
#	49033
#	80447
#	108991
#	134516
#	162350
#	187959
#	231483
#	269195
#	297607
#
# Disc length: 4521 seconds
#
# Revision: 0
# Processed by: cddbd v1.5.2PL0 Copyright (c) Steve Scherf et al.
# Submitted via: CDex 1.70beta2
#
DISCID=a311a70b
DTITLE=Craig Ferguson - American On Purpose
DYEAR=2009
DGENRE=Audiobook - Autobiography
TTITLE0=American On Purpose - 02-01
TTITLE1=American On Purpose - 02-02
TTITLE2=American On Purpose - 02-03
TTITLE3=American On Purpose - 02-04
TTITLE4=American On Purpose - 02-05
TTITLE5=American On Purpose - 02-06
TTITLE6=American On Purpose - 02-07
TTITLE7=American On Purpose - 02-08
TTITLE8=American On Purpose - 02-09
TTITLE9=American On Purpose - 02-10
TTITLE10=American On Purpose - 02-11
EXTD=YEAR: 2009
EXTT0=
EXTT1=
EXTT2=
EXTT3=
EXTT4=
EXTT5=
EXTT6=
EXTT7=
EXTT8=
EXTT9=
EXTT10=
PLAYORDER=
